# xmcd
#
# Track frame offsets: 
#        150
#        13561
#        29751
#        42470
#        58403
#        68284
#        81495
#        105491
#        115863
#        137830
#        154134
#
# Disc length: 2263 seconds
#
# Revision: 0
# Processed by: cddbd v1.5.2PL0 Copyright (c) Steve Scherf et al.
# Submitted via: ExactAudioCopy v0.99pb5
#
DISCID=9508d50b
DTITLE=Pablo Traberzo Trio - Un rincon lleno de blues
DYEAR=2006
DGENRE=Blues
TTITLE0=el callejon
TTITLE1=jenny
TTITLE2=morir en el intento
TTITLE3=pisando en falso
TTITLE4=ruta 8
TTITLE5=mi viola
TTITLE6=la vida es dura
TTITLE7=no tiro mi dinero
TTITLE8=tu
TTITLE9=que el destino me lleve
TTITLE10=dos copas
EXTD=
EXTT0=
EXTT1=
EXTT2=
EXTT3=
EXTT4=
EXTT5=
EXTT6=
EXTT7=
EXTT8=
EXTT9=
EXTT10=
PLAYORDER=
